<?xml version="1.0" encoding="UTF-8" standalone="no"?>
<svg
   xmlns:dc="http://purl.org/dc/elements/1.1/"
   xmlns:cc="http://creativecommons.org/ns#"
   xmlns:rdf="http://www.w3.org/1999/02/22-rdf-syntax-ns#"
   xmlns:svg="http://www.w3.org/2000/svg"
   xmlns="http://www.w3.org/2000/svg"
   xmlns:sodipodi="http://sodipodi.sourceforge.net/DTD/sodipodi-0.dtd"
   xmlns:inkscape="http://www.inkscape.org/namespaces/inkscape"
   width="320"
   height="80"
   viewBox="0 0 80 320"
   version="1.1"
   id="svg8"
   inkscape:version="1.0.1 (3bc2e813f5, 2020-09-07)"
   sodipodi:docname="green-marker-open.svg">
  <defs
     id="defs2">
    <inkscape:path-effect
       effect="bspline"
       id="path-effect1592"
       is_visible="true"
       lpeversion="1"
       weight="33.333333"
       steps="2"
       helper_size="0"
       apply_no_weight="true"
       apply_with_weight="true"
       only_selected="false" />
    <inkscape:path-effect
       effect="bspline"
       id="path-effect1520"
       is_visible="true"
       lpeversion="1"
       weight="33.333333"
       steps="2"
       helper_size="0"
       apply_no_weight="true"
       apply_with_weight="true"
       only_selected="false" />
    <inkscape:path-effect
       effect="bspline"
       id="path-effect1168"
       is_visible="true"
       lpeversion="1"
       weight="33.333333"
       steps="2"
       helper_size="0"
       apply_no_weight="true"
       apply_with_weight="true"
       only_selected="false" />
    <inkscape:path-effect
       effect="bspline"
       id="path-effect1108"
       is_visible="true"
       lpeversion="1"
       weight="33.333333"
       steps="2"
       helper_size="0"
       apply_no_weight="true"
       apply_with_weight="true"
       only_selected="false" />
    <inkscape:path-effect
       effect="bspline"
       id="path-effect1100"
       is_visible="true"
       lpeversion="1"
       weight="33.333333"
       steps="2"
       helper_size="0"
       apply_no_weight="true"
       apply_with_weight="true"
       only_selected="false" />
    <inkscape:path-effect
       effect="bspline"
       id="path-effect1065"
       is_visible="true"
       lpeversion="1"
       weight="33.333333"
       steps="2"
       helper_size="0"
       apply_no_weight="true"
       apply_with_weight="true"
       only_selected="false" />
    <inkscape:path-effect
       effect="bspline"
       id="path-effect1021"
       is_visible="true"
       lpeversion="1"
       weight="33.333333"
       steps="2"
       helper_size="0"
       apply_no_weight="true"
       apply_with_weight="true"
       only_selected="false" />
    <inkscape:path-effect
       effect="bspline"
       id="path-effect969"
       is_visible="true"
       lpeversion="1"
       weight="33.333333"
       steps="2"
       helper_size="0"
       apply_no_weight="true"
       apply_with_weight="true"
       only_selected="false" />
    <inkscape:path-effect
       effect="bspline"
       id="path-effect961"
       is_visible="true"
       lpeversion="1"
       weight="33.333333"
       steps="2"
       helper_size="0"
       apply_no_weight="true"
       apply_with_weight="true"
       only_selected="false" />
    <inkscape:path-effect
       effect="bspline"
       id="path-effect908"
       is_visible="true"
       lpeversion="1"
       weight="33.333333"
       steps="2"
       helper_size="0"
       apply_no_weight="true"
       apply_with_weight="true"
       only_selected="false" />
    <inkscape:path-effect
       effect="bspline"
       id="path-effect81"
       is_visible="true"
       lpeversion="1"
       weight="33.333333"
       steps="2"
       helper_size="0"
       apply_no_weight="true"
       apply_with_weight="true"
       only_selected="false" />
    <filter
       inkscape:collect="always"
       style="color-interpolation-filters:sRGB"
       id="filter910"
       x="-0.0014196839"
       width="1.0028394"
       y="-0.026312513"
       height="1.052625">
      <feGaussianBlur
         inkscape:collect="always"
         stdDeviation="0.54939992"
         id="feGaussianBlur912" />
    </filter>
    <filter
       inkscape:collect="always"
       style="color-interpolation-filters:sRGB"
       id="filter914"
       x="-0.0015926319"
       width="1.0031853"
       y="-0.023745815"
       height="1.0474916">
      <feGaussianBlur
         inkscape:collect="always"
         stdDeviation="0.63149428"
         id="feGaussianBlur916" />
    </filter>
    <filter
       inkscape:collect="always"
       style="color-interpolation-filters:sRGB"
       id="filter963"
       x="-0.0025359692"
       width="1.0050719"
       y="-0.020363279"
       height="1.0407266">
      <feGaussianBlur
         inkscape:collect="always"
         stdDeviation="0.20320855"
         id="feGaussianBlur965" />
    </filter>
    <filter
       inkscape:collect="always"
       style="color-interpolation-filters:sRGB"
       id="filter1015"
       x="-0.0012824497"
       width="1.0025649"
       y="-0.017959905"
       height="1.0359198">
      <feGaussianBlur
         inkscape:collect="always"
         stdDeviation="0.089725143"
         id="feGaussianBlur1017" />
    </filter>
    <filter
       inkscape:collect="always"
       style="color-interpolation-filters:sRGB"
       id="filter1059"
       x="-0.0014924733"
       width="1.0029849"
       y="-0.012534157"
       height="1.0250683">
      <feGaussianBlur
         inkscape:collect="always"
         stdDeviation="0.035528703"
         id="feGaussianBlur1061" />
    </filter>
    <filter
       inkscape:collect="always"
       style="color-interpolation-filters:sRGB"
       id="filter1087"
       x="-0.012171865"
       width="1.0143965"
       y="-0.34118128"
       height="1.46202">
      <feGaussianBlur
         inkscape:collect="always"
         stdDeviation="0.064768057"
         id="feGaussianBlur1089" />
    </filter>
    <filter
       inkscape:collect="always"
       style="color-interpolation-filters:sRGB"
       id="filter1102"
       x="-0.0038128373"
       width="1.0076257"
       y="-0.025983792"
       height="1.0519676">
      <feGaussianBlur
         inkscape:collect="always"
         stdDeviation="0.37659897"
         id="feGaussianBlur1104" />
    </filter>
    <filter
       inkscape:collect="always"
       style="color-interpolation-filters:sRGB"
       id="filter1586"
       x="-0.0035610138"
       width="1.007122"
       y="-0.011051368"
       height="1.0221027">
      <feGaussianBlur
         inkscape:collect="always"
         stdDeviation="0.069150337"
         id="feGaussianBlur1588" />
    </filter>
    <filter
       inkscape:collect="always"
       style="color-interpolation-filters:sRGB"
       id="filter1630"
       x="-0.14142728"
       width="1.1472634"
       y="-0.0015331507"
       height="1.0030389">
      <feGaussianBlur
         inkscape:collect="always"
         stdDeviation="0.06170544"
         id="feGaussianBlur1632" />
    </filter>
  </defs>
  <sodipodi:namedview
     id="base"
     pagecolor="#ffffff"
     bordercolor="#666666"
     borderopacity="1.0"
     inkscape:pageopacity="0.0"
     inkscape:pageshadow="2"
     inkscape:zoom="2.8284271"
     inkscape:cx="142.76317"
     inkscape:cy="-4.4490555"
     inkscape:document-units="mm"
     inkscape:current-layer="layer1"
     inkscape:document-rotation="0"
     showgrid="false"
     inkscape:window-width="1920"
     inkscape:window-height="1017"
     inkscape:window-x="-8"
     inkscape:window-y="-8"
     inkscape:window-maximized="1"
     inkscape:snap-intersection-paths="false"
     inkscape:object-nodes="false"
     inkscape:snap-nodes="true"
     inkscape:snap-others="true"
     inkscape:snap-bbox="true" />
  <metadata
     id="metadata5">
    <rdf:RDF>
      <cc:Work
         rdf:about="">
        <dc:format>image/svg+xml</dc:format>
        <dc:type
           rdf:resource="http://purl.org/dc/dcmitype/StillImage" />
        <dc:title></dc:title>
      </cc:Work>
    </rdf:RDF>
  </metadata>
  <g
     inkscape:label="Layer 1"
     inkscape:groupmode="layer"
     id="layer1">
    <rect
       style="fill:#ececec;stroke-width:11.6569"
       id="rect30"
       width="217.1049"
       height="66.235397"
       x="-473.36871"
       y="74.627289"
       rx="2.9437883"
       ry="2.9437883" />
    <path
       id="rect32"
       style="fill:#225500;stroke-width:14.3913"
       d="m -543.24208,89.577761 22.81768,-4.599675 h 47.28798 v 47.876284 h -54.72896 z"
       sodipodi:nodetypes="cccccc" />
    <path
       id="rect37"
       style="fill:#ececec;stroke-width:11.4938"
       d="m -221.96717,19.557763 c -43.13751,-0.0035 -96.38445,38.537089 -96.38464,86.080677 1.9e-4,47.54362 53.24713,86.08421 96.38464,86.08071 1.07674,-0.006 2.15332,-0.0373 3.22894,-0.0909 H 654.4786 c 4.27049,-1.52397 30.72964,-92.01015 0,-172.069645 h -876.18217 c -0.0874,-1.74e-4 -0.17579,-1.74e-4 -0.26356,0 z"
       sodipodi:nodetypes="cccccccc" />
    <path
       id="rect44"
       style="fill:#225500;stroke-width:11.6569"
       d="m -176.79694,26.843292 h 694.25181 c 2.82532,0 4.90545,2.281237 5.09986,5.099866 3.416,49.526444 4.54964,99.052892 0,148.579332 -0.25845,2.81348 -2.27454,5.09987 -5.09986,5.09987 h -694.25181 c -2.82532,0 -4.77454,-2.29333 -5.09986,-5.09987 -5.74078,-49.52644 -5.57242,-99.052888 0,-148.579332 0.3159,-2.807611 2.27454,-5.099866 5.09986,-5.099866 z"
       sodipodi:nodetypes="sssssssss" />
    <path
       style="opacity:0.27182;mix-blend-mode:lighten;fill:#ffffff;fill-opacity:1;stroke:none;stroke-width:3.89419px;stroke-linecap:butt;stroke-linejoin:miter;stroke-opacity:1;filter:url(#filter910)"
       d="m -291.26866,70.598201 c 1.81087,2.752686 20.70705,-9.969704 36.19755,-17.639536 15.49049,-7.669831 27.57036,-10.285495 49.86582,-12.724098 22.29546,-2.438604 54.80435,-4.700448 95.80856,-5.831258 41.00421,-1.13081 90.500859,-1.13081 127.043832,-0.861483 36.542973,0.269326 60.130243,0.807861 111.584088,1.023226 51.45384,0.215365 130.76652,0.107662 210.08494,-4.9e-5 0,0 197.99046,-0.969382 197.99046,-0.969382 31.91389,7.217945 63.83226,14.436902 84.15823,23.579795 20.32597,9.142894 29.06452,20.206722 32.63481,14.257907 3.57029,-5.948815 1.97484,-28.908717 -20.26639,-39.584342 -22.24123,-10.675625 -65.13002,-9.06079 -208.33462,-8.253282 -143.2046,0.807508 -386.714605,0.807508 -518.104172,1.971201 -131.389568,1.163693 -150.652728,3.491444 -167.925038,13.770498 -17.27231,10.279054 -32.54895,28.508117 -30.73807,31.260803 z"
       id="path79"
       inkscape:path-effect="#path-effect81"
       inkscape:original-d="m -308.35653,86.075 c 18.90184,-12.719507 37.79802,-25.441897 56.69228,-38.169688 12.08464,-2.61183 24.16451,-5.227494 36.24031,-7.847142 32.51438,-2.258281 65.02327,-4.520126 97.52867,-6.785671 49.50275,0.0036 98.999399,0.0036 148.492889,0 23.592375,0.542212 47.179645,1.080747 70.763261,1.615637 79.32415,-0.104043 237.95525,-0.323133 237.95525,-0.323133 l 197.99046,-0.969382 c 0,0 63.83159,14.439847 95.74167,21.653835 8.74304,11.068447 17.4816,22.132272 26.21698,33.193145 -1.59162,-22.95835 -3.18706,-45.918253 -4.78664,-68.883996 -42.88643,1.618896 -85.77522,3.23373 -128.669,4.844602 -243.51558,0.0036 -487.025585,0.0036 -730.54458,0 -19.25962,2.331681 -38.52278,4.659432 -57.79062,6.983391 -15.27298,18.233475 -30.54962,36.462536 -45.83093,54.688402 z"
       sodipodi:nodetypes="ccccccccccccccc" />
    <path
       style="opacity:0.0448878;mix-blend-mode:darken;fill:#000000;fill-opacity:1;stroke:none;stroke-width:4.7272px;stroke-linecap:butt;stroke-linejoin:miter;stroke-opacity:1;filter:url(#filter914)"
       d="m -350.50835,100.22619 c 0.33244,10.6604 0.66501,21.32503 5.61487,36.60229 4.94986,15.27726 16.42574,39.14485 47.46168,48.19753 31.03594,9.05268 112.62096,12.33723 259.592837,13.38657 146.971873,1.04934 372.906573,0.41059 491.144753,-0.0755 118.23818,-0.48611 128.775,-0.81943 136.33036,-3.95692 7.55536,-3.13749 12.13311,-9.07937 16.55377,-23.14036 4.42065,-14.06098 8.68192,-36.2341 3.79927,-36.00721 -4.88265,0.22689 -18.90564,22.85733 -50.72057,33.36291 -31.81492,10.50557 -81.4205,8.88223 -172.6829,8.38982 -91.2624,-0.49241 -224.17105,0.14633 -338.235792,1.37258 -114.064743,1.22626 -209.274258,3.03998 -264.635098,-0.0322 -55.36084,-3.0722 -70.87094,-11.03273 -86.3864,-18.996"
       id="path906"
       inkscape:path-effect="#path-effect908"
       inkscape:original-d="m -350.50835,100.22619 c 0,0 0.66885,21.32491 0.99731,31.98119 9.56904,19.89758 21.04492,43.76517 28.69519,59.6804 54.41983,2.19485 136.00485,5.47941 204.00094,8.21293 225.94784,-0.63337 451.88254,-1.27212 677.81765,-1.91629 10.54136,-0.32934 21.07818,-0.66267 31.61112,-1 4.5821,-5.93834 9.15984,-11.88023 13.73443,-17.8272 4.26688,-22.17754 8.52815,-44.35066 12.78741,-66.53818 -14.02448,22.64332 -28.04747,45.27376 -42.07762,67.90532 -49.60451,-1.61944 -99.21009,-3.24279 -148.82257,-4.87023 -132.91217,0.64278 -265.82082,1.28152 -398.740846,1.91629 -95.209399,1.8179 -190.418914,3.63162 -285.635014,5.44128 -15.5065,-7.95661 -31.0166,-15.91713 -46.53122,-23.88204"
       sodipodi:nodetypes="ccccccccccccc"
       transform="matrix(1.0063496,0,0,0.97280483,46.129025,-2.570619)" />
    <path
       style="opacity:0.248139;mix-blend-mode:lighten;fill:#ffffff;fill-opacity:1;stroke:none;stroke-width:4px;stroke-linecap:butt;stroke-linejoin:miter;stroke-opacity:1;filter:url(#filter963)"
       d="m -498.96728,91.095785 c 21.12851,-3.062839 61.96034,-2.966253 89.84261,-2.65661 27.88226,0.309643 42.81104,0.832176 50.17036,1.108993 7.35932,0.276816 7.14942,0.308585 9.14231,0.858198 1.99288,0.549614 6.18669,1.61515 3.51069,3.014079 -2.676,1.398929 -12.22017,3.132861 -33.46342,3.917065 -21.24325,0.784204 -54.18345,0.618068 -78.34381,0.146745 -24.16037,-0.471322 -39.53662,-1.247967 -48.87681,0.219502 -9.34019,1.467469 -12.6392,5.178543 -13.58192,3.926133 -0.94271,-1.2524 0.47147,-7.471265 21.59999,-10.534105 z"
       id="path959"
       inkscape:path-effect="#path-effect961"
       inkscape:original-d="m -518.68083,87.936335 c 40.84205,0.100588 81.67388,0.197175 122.50483,0.289782 14.93346,0.526536 29.86224,1.049069 44.78737,1.567635 -0.20567,0.03576 -0.41557,0.06753 -0.62973,0.09531 4.19855,1.069652 8.39236,2.135188 12.58248,3.196877 -9.54059,1.738039 -19.08476,3.471973 -28.6331,5.201906 -32.93902,-0.162165 -65.87922,-0.328301 -98.82717,-0.498443 -15.37295,-0.772705 -30.7492,-1.549351 -46.12972,-2.329985 -3.29532,3.715672 -6.59433,7.426753 -9.8976,11.133853 1.41838,-6.21467 2.83257,-12.433532 4.24264,-18.656935 z"
       transform="matrix(0.87150659,0,0,0.90280141,-12.629925,-2.2757946)"
       sodipodi:nodetypes="cccccccccc" />
    <path
       style="opacity:0.0471464;fill:#000000;fill-opacity:1;stroke:none;stroke-width:4px;stroke-linecap:butt;stroke-linejoin:miter;stroke-opacity:1;filter:url(#filter1015)"
       d="m -370.25207,144.51916 c -19.26192,0.67333 -55.91362,1.61614 -83.31411,1.96977 -27.40049,0.35362 -45.5492,0.11793 -55.03736,-1.11715 -9.48816,-1.23507 -10.3131,-3.4742 -10.90293,-5.83142 -0.58983,-2.35722 -0.94338,-4.83204 -0.2939,-4.8909 0.64947,-0.0589 2.29935,2.29811 12.19953,3.94587 9.90019,1.64775 28.0489,2.59054 53.6817,2.70823 25.63281,0.1177 58.74832,-0.5894 77.77556,-0.437 19.02723,0.1524 23.96336,1.16296 25.49505,1.86944 1.5317,0.70648 -0.34162,1.10984 -19.60354,1.78316 z"
       id="path967"
       inkscape:path-effect="#path-effect969"
       inkscape:original-d="m -352.86618,144.24978 c -36.6477,0.94681 -73.2994,1.88962 -109.9551,2.82843 -18.14544,-0.23171 -36.29415,-0.46741 -54.44722,-0.70711 -0.82098,-2.23521 -1.64592,-4.47434 -2.47488,-6.71751 -0.34956,-2.47093 -0.70311,-4.94575 -1.06066,-7.42462 1.65395,2.36107 3.30383,4.71804 4.94975,7.07107 18.15344,0.94682 36.30215,1.88961 54.44722,2.82842 33.12083,-0.70312 66.23634,-1.41021 99.3485,-2.12132 4.94166,1.01455 9.87779,2.02512 14.81247,3.03254 -1.8698,0.40714 -3.74311,0.8105 -5.62008,1.2101 z"
       transform="matrix(0.99357727,0,0,1.0871536,46.668134,-20.7879)"
       sodipodi:nodetypes="cccccccccc" />
    <path
       style="opacity:0.168735;fill:#ffffff;fill-opacity:1;stroke:none;stroke-width:4px;stroke-linecap:butt;stroke-linejoin:miter;stroke-opacity:1;filter:url(#filter1059)"
       d="m -586.66472,99.835318 c 2.00078,-1.252718 6.33411,-2.419386 13.50148,-3.08572 7.16737,-0.666334 17.16717,-0.832997 24.83393,-0.916297 7.66675,-0.0833 12.99998,-0.0833 15.4977,0.918342 2.49773,1.001643 2.1644,3.001601 0.91699,3.750517 -1.24742,0.74891 -3.41404,0.24892 -10.0811,-0.16823 -6.66705,-0.417147 -17.83349,-0.750474 -25.16724,-0.667437 -7.33375,0.08304 -10.83368,0.583027 -13.66783,1.332867 -2.83414,0.74984 -5.00076,1.74982 -6.25107,1.5859 -1.2503,-0.16391 -1.58363,-1.49722 0.41714,-2.749942 z"
       id="path1019"
       inkscape:path-effect="#path-effect1021"
       inkscape:original-d="m -589,99.75 c 4.33733,-1.162668 8.67067,-2.329332 13,-3.5 10.0042,-0.16268 20.004,-0.32932 30,-0.5 5.33744,0.004 10.67067,0.004 16,0 -0.32936,2.00404 -0.66267,4.004 -1,6 -2.16271,-0.49601 -4.32933,-0.996 -6.5,-1.5 -11.16289,-0.32934 -22.32933,-0.66267 -33.5,-1 -3.49607,0.50401 -6.996,1.004 -10.5,1.5 -2.16271,1.00402 -4.32933,2.004 -6.5,3 -0.32934,-1.32936 -0.66267,-2.66267 -1,-4 z"
       transform="matrix(1.1002082,0,0,1.1983248,107.81912,-27.861651)" />
    <path
       style="opacity:0.218362;fill:#000000;fill-opacity:1;stroke:none;stroke-width:4px;stroke-linecap:butt;stroke-linejoin:miter;stroke-opacity:1;filter:url(#filter1087)"
       d="m -579.09737,135.34787 c 1.87912,4.75854 1.87992,4.75953 7.25444,6.04 5.37452,1.28046 13.77972,0.96031 21.75534,0.84837 7.97562,-0.11195 15.49663,-0.016 19.43827,-0.26782 3.94165,-0.25178 4.27154,-0.84964 4.59213,-1.75418 0.32059,-0.90453 0.62912,-2.11116 -1.25987,-2.64652 -1.88898,-0.53536 -5.99486,-0.39775 -12.47485,-0.63011 -6.47999,-0.23236 -15.3418,-0.83483 -22.52371,-2.26601 -7.18191,-1.43117 -12.68411,-3.69267 -15.67255,-3.88721 -2.98844,-0.19455 -2.98831,-0.19506 -1.1092,4.56348 z"
       id="path1063"
       inkscape:path-effect="#path-effect1065"
       inkscape:original-d="m -581.91349,134.32902 c 4.69544,5.77723 4.69624,5.77822 7.03755,8.65955 8.40771,-0.31563 16.81291,-0.63578 25.21758,-0.96052 7.54633,0.10065 15.06734,0.19657 22.61969,0.28847 0.33592,-0.59717 0.66581,-1.19502 0.99375,-1.80099 0.31311,-1.2046 0.62163,-2.41123 0.92565,-3.62014 -4.08662,0.14156 -8.1925,0.27917 -12.29477,0.41207 -8.85814,-0.59803 -17.71995,-1.2005 -26.58596,-1.80746 -5.49853,-2.25715 -11.00073,-4.51864 -16.50695,-6.78462 -0.46489,1.87566 -0.46476,1.87515 -1.40654,5.61364 z"
       transform="matrix(1.0114382,0,0,0.89583609,57.184314,4.916621)"
       sodipodi:nodetypes="cccccccccc" />
    <path
       style="opacity:0.136476;mix-blend-mode:lighten;fill:#ffffff;fill-opacity:1;stroke:none;stroke-width:4px;stroke-linecap:butt;stroke-linejoin:miter;stroke-opacity:1;filter:url(#filter1102)"
       d="m -302.74648,46.684746 c -5.77252,-0.708891 -17.43978,-0.826744 -27.10338,-1.592389 -9.6636,-0.765645 -17.32376,-2.179829 -37.94809,-5.303032 -20.62434,-3.123202 -54.21124,-7.955 -80.43334,-11.490616 -26.2221,-3.535615 -45.07791,-5.774743 -56.21467,-7.483029 -11.13677,-1.708286 -14.55438,-2.886772 -18.03109,-3.888798 -3.47671,-1.002027 -7.01217,-1.826967 -9.19516,-0.942367 -2.18299,0.884601 -3.00793,3.477274 -3.32003,31.15328 -0.31209,27.676007 -0.11215,80.430595 0.59492,80.371605 0.70707,-0.059 1.9213,-52.932495 4.65195,-79.253734 2.73064,-26.32124 6.97319,-26.085542 26.06556,-23.374687 19.09238,2.710855 53.03282,7.8962 79.0781,11.903174 26.04528,4.006974 44.194,6.835347 59.57365,9.015525 15.37965,2.180177 27.98947,3.712211 38.83157,4.30112 10.84211,0.588908 19.91647,0.235362 24.51058,-0.58773 4.59411,-0.823092 4.71196,-2.119431 -1.06057,-2.828322 z"
       id="path1098"
       inkscape:path-effect="#path-effect1100"
       inkscape:original-d="m -296.85577,46.093668 c -11.66327,-0.11384 -23.33053,-0.23172 -35.00179,-0.35356 -7.65648,-1.410244 -15.31664,-2.824428 -22.98097,-4.24264 -33.58424,-4.827988 -67.17114,-9.659786 -100.76271,-14.495682 -18.85256,-2.235217 -37.70837,-4.474343 -56.56855,-6.717515 -3.41375,-1.174535 -6.83136,-2.353023 -10.25305,-3.535534 -3.5316,-0.820974 -7.06706,-1.645915 -10.6066,-2.474873 -0.82097,2.596776 -1.64591,5.189449 -2.47487,7.778174 0.20396,52.761749 0.40391,105.516332 0.59987,158.270072 1.21828,-52.8716 2.43252,-105.745111 3.64277,-158.623625 4.24673,0.239707 8.48928,0.475404 12.72792,0.707107 33.94581,5.189553 67.88625,10.3749 101.82338,15.556348 18.15343,2.832484 36.30215,5.660856 54.44722,8.485284 12.61432,1.536092 25.22414,3.068128 37.83021,4.596192 9.07872,-0.34956 18.15308,-0.703108 27.22361,-1.06066 0.12184,-1.292388 0.23972,-2.588724 0.35356,-3.889088 z"
       sodipodi:nodetypes="cccccccccccccccc" />
    <path
       style="opacity:0.133995;fill:#ffffff;fill-opacity:1;stroke:none;stroke-width:4px;stroke-linecap:butt;stroke-linejoin:miter;stroke-opacity:1;filter:url(#filter1586)"
       d="m -588.79123,79.670814 c -0.12579,-2.833906 0.20755,-6.250571 0.49916,-8.127048 0.2916,-1.876476 0.54159,-2.209794 7.96063,-2.418459 7.41905,-0.208665 22.00209,-0.291996 29.62751,-0.207745 7.62543,0.08425 8.29208,0.334245 8.45614,0.666923 0.16406,0.332678 -0.16927,0.749337 -3.08379,0.957426 -2.91453,0.208089 -8.41442,0.208089 -14.70631,0.457963 -6.29188,0.249875 -13.37508,0.749865 -17.79205,1.166367 -4.41696,0.416502 -6.16694,0.749831 -7.33539,3.210224 -1.16845,2.460394 -1.75177,7.043639 -2.33428,8.210925 -0.58251,1.167287 -1.16583,-1.082671 -1.29162,-3.916576 z"
       id="path1518"
       inkscape:path-effect="#path-effect1520"
       inkscape:original-d="m -589.25,80.25 c 0.33733,-3.412668 0.67067,-6.829332 1,-10.25 0.254,-0.32936 0.504,-0.662668 0.75,-1 14.58763,-0.07932 29.17067,-0.16268 43.75,-0.25 0.67068,0.254 1.33733,0.504 2,0.75 -0.32934,0.420676 -0.66267,0.837332 -1,1.25 -5.49611,0.004 -10.996,0.004 -16.5,0 -7.07947,0.504008 -14.16267,1.004 -21.25,1.5 -1.74603,0.33732 -3.496,0.670668 -5.25,1 -0.57934,4.587424 -1.16267,9.170668 -1.75,13.75 -0.57934,-2.246044 -1.16267,-4.496 -1.75,-6.75 z" />
    <path
       style="opacity:0.0843673;fill:#ffffff;fill-opacity:1;stroke:none;stroke-width:4px;stroke-linecap:butt;stroke-linejoin:miter;stroke-opacity:1;filter:url(#filter1630)"
       d="m -377.79764,60.755502 c -4.42887,0.416113 -9.04425,0.77684 -11.0285,15.42569 -1.98425,14.648849 -1.33395,43.570188 -2.00998,61.142998 -0.67603,17.5728 -2.67744,23.78783 -3.86269,13.19547 -1.18525,-10.59237 -1.55497,-37.99348 -2.1116,-55.920672 -0.55662,-17.927197 -1.30029,-26.378093 2.16427,-30.785686 3.46455,-4.407594 11.13364,-4.765603 16.79516,-4.826531 5.66152,-0.06093 9.31484,0.17477 9.01981,0.527995 -0.29504,0.353226 -4.5376,0.824622 -8.96647,1.240736 z"
       id="path1590"
       inkscape:path-effect="#path-effect1592"
       inkscape:original-d="m -377.61492,60.811184 c -4.61129,0.364317 -9.22667,0.725045 -13.84612,1.082179 0.65391,28.936605 1.30421,57.857947 1.95138,86.785207 -1.9984,6.21974 -3.9998,12.43477 -6.00471,18.64665 -0.36639,-27.39797 -0.73611,-54.79908 -1.10921,-82.205064 -0.74044,-8.44863 -1.48411,-16.899525 -2.23132,-25.356241 7.67349,-0.354409 15.34258,-0.712419 23.00774,-1.074051 3.65746,0.23972 7.31078,0.475404 10.96016,0.707104 -4.23872,0.475416 -8.48128,0.946812 -12.72792,1.414216 z"
       transform="matrix(1.195352,0,0,1.0961814,122.02721,-14.668235)"
       sodipodi:nodetypes="ccccccccc" />
  </g>
</svg>
